<svg xmlns="http://www.w3.org/2000/svg" width="109" height="116" viewBox="0 0 109 116"><g><g><path fill="#f32735" d="M68.613 69.216l-6.758-28.968 12.888-3.003 1.805 30.12zm-19.315 4.502l-6.753-28.966 11.902-2.775L61.2 70.943zm-15.35 3.58L22.246 49.484 35.13 46.48l6.756 28.968zm73.967 8.308a5.86 5.86 0 0 0-2.3-2.205 5.829 5.829 0 0 0-5.738.127c-.452.27-3.466 2.112-6.863 5.93a42.43 42.43 0 0 0-5.6-8.668 45.228 45.228 0 0 0-5.155-5.238l.473-.109a7.625 7.625 0 0 0 5.889-7.408l.074-36.525c2.978-.859 4.802-3.905 4.088-6.958a5.862 5.862 0 0 0-7.041-4.378l-6.394 1.49-.643.153v-.002l-6.152 1.434a4.315 4.315 0 0 0-.651-.942L52.874 1.994a4.369 4.369 0 0 0-6.174-.201l-1 .936a4.369 4.369 0 0 0-.202 6.173l15.878 16.953-32.182 7.506 6.741-22.226a4.37 4.37 0 0 0-2.91-5.452l-1.312-.393a4.36 4.36 0 0 0-5.445 2.91L18.19 34.833a4.3 4.3 0 0 0-.169 1.136l-2.862.664-3.933.917-6.394 1.491a5.861 5.861 0 0 0-4.376 7.043 5.853 5.853 0 0 0 6.744 4.43l16.222 32.727a7.621 7.621 0 0 0 8.558 4.038l5.946-1.387c.06.596.118 1.188.143 1.745.085 1.933-.052 3.623-.344 4.991-.29 1.37-.736 2.404-1.188 3.072-.37.544-.742.897-1.217 1.195-.477.296-1.09.541-1.963.698h.005a7.205 7.205 0 0 1-.899.1c-1.253.056-2.494-.235-3.74-.794-1.859-.826-3.636-2.285-4.88-3.556a23.41 23.41 0 0 1-1.456-1.622c-.163-.202-.288-.37-.364-.47l-.083-.115-.014-.016v.002a5.83 5.83 0 0 0-5.054-2.514l-.202.011a5.85 5.85 0 0 0-4.8 3.282l-.011.018-.002.006-.01.017c-.033.078-.338.708-.801 1.676-1.445 3.024-4.454 9.337-6.285 13.374l-.046.107.025-.056a5.839 5.839 0 0 0 .477 5.587 5.848 5.848 0 0 0 5.121 2.602 5.846 5.846 0 0 0 5.057-3.427 517.61 517.61 0 0 1 3.426-7.36c.914.704 1.89 1.395 2.993 2.033 3.009 1.735 6.8 3.072 11.122 2.88.813-.038 1.635-.13 2.474-.278 2.233-.397 4.326-1.168 6.169-2.331a15.62 15.62 0 0 0 4.646-4.547c1.541-2.298 2.436-4.855 2.933-7.43.496-2.578.601-5.197.489-7.73a45.86 45.86 0 0 0-.207-2.605l18.146-4.244c2.924 1.09 6.706 3.452 10.006 7.11 3.664 4.04 6.806 9.591 8.07 16.834a5.65 5.65 0 0 0 1.948 3.36 5.953 5.953 0 0 0 3.355 1.367l.122.011.387.003.105.004.103-.005a5.877 5.877 0 0 0 5.178-3.659l.003-.002a27.307 27.307 0 0 1 5.846-8.927 23.03 23.03 0 0 1 2.356-2.093 15.2 15.2 0 0 1 .659-.476l.147-.098.022-.014-.002-.003a5.867 5.867 0 0 0 2.153-2.269 5.88 5.88 0 0 0-.128-5.73z"/></g></g></svg>